# xmcd CD database file
#
# Track frame offsets:
#	150
#	23534
#	47329
#	64429
#	86776
#	106755
#	134584
#	158689
#	185035
#	209564
#
# Disc length: 3159 seconds
#
# Revision: 0
# Processed by: cddbd v1.5.2PL0 Copyright (c) Steve Scherf et al.
# Submitted via: CDex 1.51
#
DISCID=880c550a
DTITLE=Johannes Mössinger - Rules - No Rules CD1
DYEAR=2010
DGENRE=Jazz
TTITLE0=Argue with Red
TTITLE1=Silent Joy
TTITLE2=Behind the Eyes
TTITLE3=When God takes a break
TTITLE4=Again and Again
TTITLE5=Space of Time
TTITLE6=Landscapes
TTITLE7=Last Letter from Cairo
TTITLE8=Joana's Dance
TTITLE9=A Night for You
EXTD=YEAR: 2010
EXTT0=
EXTT1=
EXTT2=
EXTT3=
EXTT4=
EXTT5=
EXTT6=
EXTT7=
EXTT8=
EXTT9=
PLAYORDER=
